<svg xmlns="http://www.w3.org/2000/svg" viewBox="0 0 1200 675" width="1200" height="675" role="img">
  <rect width="1200" height="675" fill="#0B0C0A"/>
  <g stroke="#2E312C" stroke-width="1">
    <line x1="120" y1="150" x2="1090" y2="150"/>
    <line x1="120" y1="256" x2="1090" y2="256"/>
    <line x1="120" y1="390" x2="1090" y2="390"/>
    <line x1="120" y1="496" x2="1090" y2="496"/>
  </g>
    <rect x="120" y="180" width="30" height="46" fill="none" stroke="#6B6E68" stroke-width="1.5"/>
    <rect x="164" y="180" width="30" height="46" fill="none" stroke="#6B6E68" stroke-width="1.5"/>
    <rect x="208" y="180" width="30" height="46" fill="none" stroke="#6B6E68" stroke-width="1.5"/>
    <rect x="252" y="180" width="30" height="46" fill="none" stroke="#6B6E68" stroke-width="1.5"/>
    <rect x="296" y="180" width="30" height="46" fill="none" stroke="#6B6E68" stroke-width="1.5"/>
    <rect x="340" y="180" width="30" height="46" fill="none" stroke="#6B6E68" stroke-width="1.5"/>
    <rect x="384" y="180" width="30" height="46" fill="none" stroke="#6B6E68" stroke-width="1.5"/>
    <rect x="428" y="180" width="30" height="46" fill="none" stroke="#6B6E68" stroke-width="1.5"/>
    <rect x="472" y="180" width="30" height="46" fill="none" stroke="#6B6E68" stroke-width="1.5"/>
    <rect x="516" y="180" width="30" height="46" fill="none" stroke="#6B6E68" stroke-width="1.5"/>
    <rect x="560" y="180" width="30" height="46" fill="none" stroke="#6B6E68" stroke-width="1.5"/>
    <rect x="604" y="180" width="30" height="46" fill="none" stroke="#6B6E68" stroke-width="1.5"/>
    <rect x="648" y="180" width="30" height="46" fill="none" stroke="#6B6E68" stroke-width="1.5"/>
    <rect x="692" y="180" width="30" height="46" fill="none" stroke="#6B6E68" stroke-width="1.5"/>
    <rect x="736" y="180" width="30" height="46" fill="none" stroke="#6B6E68" stroke-width="1.5"/>
    <rect x="780" y="180" width="30" height="46" fill="none" stroke="#6B6E68" stroke-width="1.5"/>
    <rect x="824" y="180" width="30" height="46" fill="none" stroke="#6B6E68" stroke-width="1.5"/>
    <rect x="868" y="180" width="30" height="46" fill="none" stroke="#6B6E68" stroke-width="1.5"/>
    <rect x="912" y="180" width="30" height="46" fill="none" stroke="#6B6E68" stroke-width="1.5"/>
    <rect x="956" y="180" width="30" height="46" fill="none" stroke="#6B6E68" stroke-width="1.5"/>
    <rect x="1000" y="180" width="30" height="46" fill="none" stroke="#6B6E68" stroke-width="1.5"/>
    <rect x="1044" y="180" width="30" height="46" fill="none" stroke="#6B6E68" stroke-width="1.5"/>
    <rect x="120" y="420" width="18" height="46" fill="none" stroke="#6B6E68" stroke-width="1.5"/>
    <rect x="146" y="420" width="30" height="46" fill="none" stroke="#6B6E68" stroke-width="1.5"/>
    <rect x="184" y="420" width="26" height="46" fill="none" stroke="#6B6E68" stroke-width="1.5"/>
    <rect x="218" y="420" width="12" height="46" fill="none" stroke="#6B6E68" stroke-width="1.5"/>
    <rect x="238" y="420" width="34" height="46" fill="none" stroke="#6B6E68" stroke-width="1.5"/>
    <rect x="280" y="420" width="22" height="46" fill="none" stroke="#6B6E68" stroke-width="1.5"/>
    <rect x="310" y="420" width="28" height="46" fill="none" stroke="#6B6E68" stroke-width="1.5"/>
    <rect x="346" y="420" width="16" height="46" fill="none" stroke="#6B6E68" stroke-width="1.5"/>
    <rect x="370" y="420" width="32" height="46" fill="none" stroke="#6B6E68" stroke-width="1.5"/>
    <rect x="410" y="420" width="20" height="46" fill="none" stroke="#6B6E68" stroke-width="1.5"/>
    <rect x="438" y="420" width="26" height="46" fill="none" stroke="#6B6E68" stroke-width="1.5"/>
    <rect x="472" y="420" width="14" height="46" fill="none" stroke="#6B6E68" stroke-width="1.5"/>
    <rect x="494" y="420" width="30" height="46" fill="none" stroke="#6B6E68" stroke-width="1.5"/>
    <rect x="532" y="420" width="24" height="46" fill="none" stroke="#6B6E68" stroke-width="1.5"/>
    <rect x="564" y="420" width="18" height="46" fill="none" stroke="#6B6E68" stroke-width="1.5"/>
    <rect x="590" y="420" width="34" height="46" fill="none" stroke="#6B6E68" stroke-width="1.5"/>
    <rect x="632" y="420" width="22" height="46" fill="none" stroke="#6B6E68" stroke-width="1.5"/>
    <rect x="662" y="420" width="28" height="46" fill="none" stroke="#6B6E68" stroke-width="1.5"/>
    <rect x="698" y="420" width="12" height="46" fill="none" stroke="#6B6E68" stroke-width="1.5"/>
    <rect x="718" y="420" width="30" height="46" fill="none" stroke="#6B6E68" stroke-width="1.5"/>
    <rect x="756" y="420" width="26" height="46" fill="none" stroke="#6B6E68" stroke-width="1.5"/>
    <rect x="790" y="420" width="20" height="46" fill="none" stroke="#6B6E68" stroke-width="1.5"/>
    <rect x="818" y="420" width="16" height="46" fill="none" stroke="#6B6E68" stroke-width="1.5"/>
    <rect x="842" y="420" width="32" height="46" fill="none" stroke="#6B6E68" stroke-width="1.5"/>
    <rect x="882" y="420" width="24" height="46" fill="none" stroke="#6B6E68" stroke-width="1.5"/>
    <rect x="914" y="420" width="28" height="46" fill="none" stroke="#6B6E68" stroke-width="1.5"/>
    <rect x="950" y="420" width="18" height="46" fill="none" stroke="#6B6E68" stroke-width="1.5"/>
    <rect x="976" y="420" width="22" height="46" fill="none" stroke="#6B6E68" stroke-width="1.5"/>
  <rect x="120" y="180" width="30" height="46" fill="none" stroke="#FFB800" stroke-width="1.5"/>
  <g stroke="#6B6E68" stroke-width="1.5">
    <path d="M40 40 h44 M40 40 v44"/>
    <path d="M1160 40 h-44 M1160 40 v44"/>
    <path d="M40 635 h44 M40 635 v-44"/>
    <path d="M1160 635 h-44 M1160 635 v-44"/>
  </g>
</svg>
